<svg width="164" height="68" viewBox="0 0 164 68" fill="none" xmlns="http://www.w3.org/2000/svg">
<rect x="6" y="7" width="158" height="61" rx="6" fill="#F5EE84"/>
<rect x="0.5" y="0.5" width="157" height="60" rx="5.5" stroke="#474306"/>
<path d="M46.88 38L43.56 32.3H41.36V38H39.54V24.06H44.04C45.0933 24.06 45.98 24.24 46.7 24.6C47.4333 24.96 47.98 25.4467 48.34 26.06C48.7 26.6733 48.88 27.3733 48.88 28.16C48.88 29.12 48.6 29.9667 48.04 30.7C47.4933 31.4333 46.6667 31.92 45.56 32.16L49.06 38H46.88ZM41.36 30.84H44.04C45.0267 30.84 45.7667 30.6 46.26 30.12C46.7533 29.6267 47 28.9733 47 28.16C47 27.3333 46.7533 26.6933 46.26 26.24C45.78 25.7867 45.04 25.56 44.04 25.56H41.36V30.84ZM61.708 32.1C61.708 32.4467 61.688 32.8133 61.648 33.2H52.888C52.9546 34.28 53.3213 35.1267 53.988 35.74C54.668 36.34 55.488 36.64 56.448 36.64C57.2346 36.64 57.888 36.46 58.408 36.1C58.9413 35.7267 59.3146 35.2333 59.528 34.62H61.488C61.1946 35.6733 60.608 36.5333 59.728 37.2C58.848 37.8533 57.7546 38.18 56.448 38.18C55.408 38.18 54.4746 37.9467 53.648 37.48C52.8346 37.0133 52.1946 36.3533 51.728 35.5C51.2613 34.6333 51.028 33.6333 51.028 32.5C51.028 31.3667 51.2546 30.3733 51.708 29.52C52.1613 28.6667 52.7946 28.0133 53.608 27.56C54.4346 27.0933 55.3813 26.86 56.448 26.86C57.488 26.86 58.408 27.0867 59.208 27.54C60.008 27.9933 60.6213 28.62 61.048 29.42C61.488 30.2067 61.708 31.1 61.708 32.1ZM59.828 31.72C59.828 31.0267 59.6746 30.4333 59.368 29.94C59.0613 29.4333 58.6413 29.0533 58.108 28.8C57.588 28.5333 57.008 28.4 56.368 28.4C55.448 28.4 54.6613 28.6933 54.008 29.28C53.368 29.8667 53.0013 30.68 52.908 31.72H59.828ZM67.9903 38.18C67.1503 38.18 66.397 38.04 65.7303 37.76C65.0636 37.4667 64.537 37.0667 64.1503 36.56C63.7636 36.04 63.5503 35.4467 63.5103 34.78H65.3903C65.4436 35.3267 65.697 35.7733 66.1503 36.12C66.617 36.4667 67.2236 36.64 67.9703 36.64C68.6636 36.64 69.2103 36.4867 69.6103 36.18C70.0103 35.8733 70.2103 35.4867 70.2103 35.02C70.2103 34.54 69.997 34.1867 69.5703 33.96C69.1436 33.72 68.4836 33.4867 67.5903 33.26C66.777 33.0467 66.1103 32.8333 65.5903 32.62C65.0836 32.3933 64.6436 32.0667 64.2703 31.64C63.9103 31.2 63.7303 30.6267 63.7303 29.92C63.7303 29.36 63.897 28.8467 64.2303 28.38C64.5636 27.9133 65.037 27.5467 65.6503 27.28C66.2636 27 66.9636 26.86 67.7503 26.86C68.9636 26.86 69.9436 27.1667 70.6903 27.78C71.437 28.3933 71.837 29.2333 71.8903 30.3H70.0703C70.0303 29.7267 69.797 29.2667 69.3703 28.92C68.957 28.5733 68.397 28.4 67.6903 28.4C67.037 28.4 66.517 28.54 66.1303 28.82C65.7436 29.1 65.5503 29.4667 65.5503 29.92C65.5503 30.28 65.6636 30.58 65.8903 30.82C66.1303 31.0467 66.4236 31.2333 66.7703 31.38C67.1303 31.5133 67.6236 31.6667 68.2503 31.84C69.037 32.0533 69.677 32.2667 70.1703 32.48C70.6636 32.68 71.0836 32.9867 71.4303 33.4C71.7903 33.8133 71.977 34.3533 71.9903 35.02C71.9903 35.62 71.8236 36.16 71.4903 36.64C71.157 37.12 70.6836 37.5 70.0703 37.78C69.4703 38.0467 68.777 38.18 67.9903 38.18ZM84.2795 27.04V38H82.4595V36.38C82.1129 36.94 81.6262 37.38 80.9995 37.7C80.3862 38.0067 79.7062 38.16 78.9595 38.16C78.1062 38.16 77.3395 37.9867 76.6595 37.64C75.9795 37.28 75.4395 36.7467 75.0395 36.04C74.6529 35.3333 74.4595 34.4733 74.4595 33.46V27.04H76.2595V33.22C76.2595 34.3 76.5329 35.1333 77.0795 35.72C77.6262 36.2933 78.3729 36.58 79.3195 36.58C80.2929 36.58 81.0595 36.28 81.6195 35.68C82.1795 35.08 82.4595 34.2067 82.4595 33.06V27.04H84.2795ZM100.533 26.84C101.386 26.84 102.146 27.02 102.813 27.38C103.479 27.7267 104.006 28.2533 104.393 28.96C104.779 29.6667 104.973 30.5267 104.973 31.54V38H103.173V31.8C103.173 30.7067 102.899 29.8733 102.353 29.3C101.819 28.7133 101.093 28.42 100.173 28.42C99.2258 28.42 98.4725 28.7267 97.9125 29.34C97.3525 29.94 97.0725 30.8133 97.0725 31.96V38H95.2725V31.8C95.2725 30.7067 94.9992 29.8733 94.4525 29.3C93.9192 28.7133 93.1925 28.42 92.2725 28.42C91.3258 28.42 90.5725 28.7267 90.0125 29.34C89.4525 29.94 89.1725 30.8133 89.1725 31.96V38H87.3525V27.04H89.1725V28.62C89.5325 28.0467 90.0125 27.6067 90.6125 27.3C91.2258 26.9933 91.8992 26.84 92.6325 26.84C93.5525 26.84 94.3658 27.0467 95.0725 27.46C95.7792 27.8733 96.3058 28.48 96.6525 29.28C96.9592 28.5067 97.4658 27.9067 98.1725 27.48C98.8792 27.0533 99.6658 26.84 100.533 26.84ZM117.958 32.1C117.958 32.4467 117.938 32.8133 117.898 33.2H109.138C109.205 34.28 109.571 35.1267 110.238 35.74C110.918 36.34 111.738 36.64 112.698 36.64C113.485 36.64 114.138 36.46 114.658 36.1C115.191 35.7267 115.565 35.2333 115.778 34.62H117.738C117.445 35.6733 116.858 36.5333 115.978 37.2C115.098 37.8533 114.005 38.18 112.698 38.18C111.658 38.18 110.725 37.9467 109.898 37.48C109.085 37.0133 108.445 36.3533 107.978 35.5C107.511 34.6333 107.278 33.6333 107.278 32.5C107.278 31.3667 107.505 30.3733 107.958 29.52C108.411 28.6667 109.045 28.0133 109.858 27.56C110.685 27.0933 111.631 26.86 112.698 26.86C113.738 26.86 114.658 27.0867 115.458 27.54C116.258 27.9933 116.871 28.62 117.298 29.42C117.738 30.2067 117.958 31.1 117.958 32.1ZM116.078 31.72C116.078 31.0267 115.925 30.4333 115.618 29.94C115.311 29.4333 114.891 29.0533 114.358 28.8C113.838 28.5333 113.258 28.4 112.618 28.4C111.698 28.4 110.911 28.6933 110.258 29.28C109.618 29.8667 109.251 30.68 109.158 31.72H116.078Z" fill="#474306"/>
</svg>
